<svg xmlns="http://www.w3.org/2000/svg" width="120" height="170" viewBox="0 0 120 170" role="img" aria-label="">
  <defs>
    <linearGradient id="speaker" x1="0" y1="0" x2="1" y2="1"><stop stop-color="#55ca95"/><stop offset="1" stop-color="#22a66b"/></linearGradient>
    <filter id="softShadow" x="-25%" y="-25%" width="150%" height="160%"><feDropShadow dx="0" dy="5" stdDeviation="5" flood-color="#42b883" flood-opacity=".19"/></filter>
  </defs>
  <path d="M17 24c8-9 21-10 30-2M87 19c8 2 14 8 16 16" fill="none" stroke="#c1eed9" stroke-width="5" stroke-linecap="round"/>
  <g filter="url(#softShadow)">
    <rect x="10" y="35" width="94" height="103" rx="17" fill="#fff"/>
    <rect x="10" y="35" width="94" height="103" rx="17" fill="none" stroke="#ddf3e8" stroke-width="2"/>
    <text x="23" y="68" fill="#2fbd7d" font-family="Arial, sans-serif" font-size="21" font-weight="700">Hola!</text>
    <rect x="23" y="80" width="60" height="6" rx="3" fill="#b9e7d2"/>
    <rect x="23" y="93" width="48" height="6" rx="3" fill="#a9dfc6"/>
    <rect x="23" y="106" width="53" height="6" rx="3" fill="#d1f0df"/>
  </g>
  <g filter="url(#softShadow)">
    <circle cx="83" cy="132" r="28" fill="url(#speaker)"/>
    <path d="M67 126v12h8l10 8v-28l-10 8z" fill="#fff"/>
    <path d="M92 125c5 4 5 11 0 15" fill="none" stroke="#fff" stroke-width="4" stroke-linecap="round"/>
    <path d="M98 119c8 8 8 19 0 27" fill="none" stroke="#fff" stroke-width="3" stroke-linecap="round" opacity=".72"/>
  </g>
</svg>
